<?xml version="1.0" encoding="utf-8"?>
<!-- Generator: Adobe Illustrator 27.2.0, SVG Export Plug-In . SVG Version: 6.00 Build 0)  -->
<svg version="1.1" id="Calque_1" xmlns="http://www.w3.org/2000/svg" xmlns:xlink="http://www.w3.org/1999/xlink" x="0px" y="0px"
	 viewBox="0 0 1200 830.93" style="enable-background:new 0 0 1200 830.93;" xml:space="preserve">
<style type="text/css">
	.st0{fill:#FAF0EB;}
	.st1{fill:#E5544F;}
</style>
<rect y="0.47" class="st0" width="1200" height="830"/>
<g>
	<path class="st1" d="M55.83,825.32c0.27-0.5,0.74-0.89,2.04-1.32c-0.28-0.53-0.66-0.91-1.31-1.26c-0.93,0.45-1.44,0.8-2.06,1.58
		C55.07,824.51,55.36,824.76,55.83,825.32"/>
	<path class="st1" d="M107.49,781.67c-0.23-0.24-0.5-0.29-0.93-0.35c-0.1,0.94-0.49,1.92-1.04,3.01c0.34,0.07,0.54,0.19,0.82,0.46
		C107,783.67,107.26,782.99,107.49,781.67"/>
	<path class="st1" d="M34.01,802.97c0.58,0.55,0.81,1.03,0.72,1.97c0.97-0.38,1.52-0.86,2.46-1.8c0.05-0.74-0.16-1.12-0.77-1.7
		C35.6,802.24,34.96,802.75,34.01,802.97"/>
	<path class="st1" d="M24.28,754.1c-0.37,0.56-0.6,0.83-1.11,1.09c0.17,0.2,0.25,0.36,0.24,0.53c0.57-0.25,0.89-0.54,1.33-1.1
		C24.63,754.39,24.47,754.23,24.28,754.1"/>
	<path class="st1" d="M64.94,754.19c-0.67,0.17-1.01,0.59-1.55,1.3c1.58,1.12,2.93,2.78,4.31,4.84c0.46-0.55,0.88-0.77,1.63-1
		C68.01,757.06,67.07,755.9,64.94,754.19"/>
	<path class="st1" d="M199.16,775.78c0.72,0.49,1.22,0.72,1.93,0.93c0.13-0.57,0.1-0.95,0-1.3c-0.45-0.03-0.75-0.22-1.19-0.55
		C199.75,775.34,199.56,775.55,199.16,775.78"/>
	<path class="st1" d="M72.41,623.86c-0.3-0.64-0.28-1.09-0.15-1.75c-1.12,0.29-2.22,0.7-2.63,1.04c0.12,0.54,0.34,0.97,0.73,1.52
		C70.83,624.28,71.41,624.11,72.41,623.86"/>
	<path class="st1" d="M128.48,807.36c-0.84-0.19-1.25-0.33-1.8-0.82c-0.16,0.3-0.31,0.46-0.52,0.52c0.55,0.56,1.05,0.81,1.92,1.08
		C128.3,807.91,128.41,807.65,128.48,807.36"/>
	<path class="st1" d="M174.43,796.21c0.52,1.48,1.07,2.28,2.46,3.39c1.08-1.63,2.02-2.38,3.28-2.92c-0.38-1.42-0.88-2.32-1.81-3.6
		C177.21,794.44,176.16,795.21,174.43,796.21"/>
	<path class="st1" d="M17.92,774.8c0-0.96-0.45-1.57-1.21-2.55c-2.07,1.74-4.78,2.98-8.06,4.11c0.58,0.82,0.73,1.46,0.77,2.56
		C12.96,777.93,14.85,777.06,17.92,774.8"/>
	<path class="st1" d="M24.42,562.06c0.29-0.69,0.72-1.23,1.66-1.62c-1.58-1.94-2.83-2.98-4.75-4.39c-1.25,0.74-1.76,1.43-2.08,1.96
		C21.6,559.02,22.79,560.16,24.42,562.06"/>
	<path class="st1" d="M137.27,788.46c0.82,0.35,1.3,0.44,2.21,0.14c0.25-1.46,0.5-2.31,1.03-3.66c-0.53-0.01-0.9-0.13-1.19-0.3
		C138.76,786.21,138.22,787.1,137.27,788.46"/>
	<path class="st1" d="M212.45,817.02c0.65-0.14,1.02-0.33,1.56-0.85c-0.63-0.54-0.89-0.98-1.05-1.54c-0.62,0.08-1.02,0.24-1.61,0.57
		C211.86,815.75,212.13,816.24,212.45,817.02"/>
	<path class="st1" d="M74.36,825.68c-0.43-0.87-0.76-1.3-1.73-1.7c-1.26,1.03-2.07,1.55-3.48,2.29c0.43,0.39,0.65,0.76,0.77,1.1
		C71.5,826.47,72.59,826.12,74.36,825.68"/>
	<path class="st1" d="M15,480.58c2.09-1.1,3.27-2.01,4.65-3.43c-1.2-1.02-2.13-1.45-3.1-1.65c-0.63,1.05-1.46,1.52-2.82,2.15
		C14.7,478.6,14.96,479.34,15,480.58"/>
	<path class="st1" d="M76.66,817.17c0.06-1.85-0.11-3-0.54-4.48c-1.16,0.42-1.81,0.89-2.32,1.47c0.47,0.84,0.47,1.58,0.38,2.74
		C75.2,816.61,75.8,816.72,76.66,817.17"/>
	<path class="st1" d="M217.84,812.43c-0.69-0.14-1.12-0.11-1.87,0.16c0.38,0.79,0.45,1.33,0.37,1.94c0.64,0.18,1.09,0.2,1.8,0.13
		C217.88,813.91,217.83,813.33,217.84,812.43"/>
	<path class="st1" d="M109.36,794.79c0.69,1.36,1.84,1.98,3.89,2.5c1.18-3.11,2.22-4.8,4.41-7.09c-1.47-0.46-2.31-1.23-3.67-3.07
		C111.79,789.48,110.58,791.7,109.36,794.79"/>
	<path class="st1" d="M20.35,482.03c-0.5,1-0.36,1.95,0.23,3.38c2.34-0.67,3.8-0.79,6.1-0.51c-0.37-1.06-0.28-1.89,0.2-3.5
		C24.53,481.13,22.7,481.39,20.35,482.03"/>
	<path class="st1" d="M84.54,738.84c0.42,0.52,0.68,1.07,0.91,1.86c1.26-1.15,2.16-1.85,3.31-2.45c-0.02-0.89-0.25-1.33-0.68-1.88
		C87.22,736.77,85.92,737.67,84.54,738.84"/>
	<path class="st1" d="M43.08,755.07c0.54-1.23,1.2-1.76,2.31-2.39c-1.8-1.24-3.75-2.28-4.75-2.46c-0.63,0.84-0.96,1.7-1.25,2.93
		C40.52,753.34,41.49,753.96,43.08,755.07"/>
	<path class="st1" d="M103.18,474.56c-0.04,1,0.24,1.62,1.07,2.33c1.03-0.19,1.75-0.47,2.31-1.05c-0.28-1.09-0.15-1.89,0.19-3.22
		C105.51,473.55,104.71,474.09,103.18,474.56"/>
	<path class="st1" d="M74.86,570.67c-0.11-1.36-0.6-2.17-1.86-2.99c-1.38,0.44-2.31,0.94-2.96,1.84c0.57,1.43,0.54,2.54,0.3,4.43
		C71.87,572.45,72.86,571.58,74.86,570.67"/>
	<path class="st1" d="M142.76,749.76c-0.7,0.01-1.12,0.12-1.79,0.55c0.53,0.69,0.72,1.2,0.76,1.81c0.66,0.04,1.11-0.04,1.78-0.25
		C143.11,751.19,142.94,750.64,142.76,749.76"/>
	<path class="st1" d="M7.15,453.74c0.42,0.72,0.94,1.46,1.82,1.84c0.67-0.2,1.13-0.3,1.85-0.32c-0.43-0.44-0.45-0.87-0.23-1.72
		C9.57,453.84,8.54,453.8,7.15,453.74"/>
	<path class="st1" d="M29.02,421.15c-1.8,1.21-3.12,2.37-3.9,3.99c0.73,1.24,1.44,1.87,2.46,2.32c1.12-1.89,2.01-2.79,3.88-3.9
		C30.09,422.97,29.38,422.41,29.02,421.15"/>
	<path class="st1" d="M104.9,593.91c1.57-0.54,2.48-1.05,3.58-1.89c-0.72-0.84-1.32-1.23-1.98-1.47c-0.55,0.66-1.17,0.9-2.18,1.19
		C104.89,592.52,104.99,593.05,104.9,593.91"/>
	<path class="st1" d="M34.7,621.84c0.62,0.35,1.05,0.46,1.86,0.42c-0.12-0.88-0.02-1.42,0.25-1.98c-0.56-0.37-0.99-0.53-1.7-0.69
		C35.12,620.4,34.99,620.98,34.7,621.84"/>
	<path class="st1" d="M53.21,615.3c-0.7,0.88-1.5,1.5-2.71,2.16c2.33,1.64,3.8,2.85,5.2,4.51c1.45-0.35,2.08-0.89,2.82-1.78
		C57.57,618.93,55.62,617.12,53.21,615.3"/>
	<path class="st1" d="M165.91,807.58c0.8,1.68,0.9,3.69-0.53,7.98c1.93,0.31,3.7,0.05,5.91-0.99c0.62-3.34,0.72-5.38-0.12-8.56
		C169.53,807.17,168.3,807.42,165.91,807.58"/>
	<path class="st1" d="M211.13,589.66c0.65-1.14,0.87-1.84,0.58-3.22c-2.1-0.62-3.3-1.13-5.19-2.14c-0.11,0.78-0.35,1.3-0.64,1.69
		C208.08,587.08,209.29,588.03,211.13,589.66"/>
	<path class="st1" d="M192.26,593.39c-0.37,0.36-0.45,0.77-0.54,1.43c1.46,0.15,2.96,0.75,4.63,1.6c0.1-0.53,0.29-0.83,0.71-1.26
		C195.34,594.15,194.29,593.74,192.26,593.39"/>
	<path class="st1" d="M114.95,557.84c0.76-1.11,1.11-1.88,1.43-2.97c-0.88-0.2-1.46-0.16-2,0c-0.04,0.7-0.33,1.16-0.84,1.83
		C114.28,556.93,114.6,557.23,114.95,557.84"/>
	<path class="st1" d="M150.74,598.47c2.28-0.8,3.51-1.64,5.22-3.79c-2.52-1.67-3.67-3.11-4.5-5.06c-2.19,0.59-3.57,1.35-5.55,2.79
		C148.01,594.19,149.19,595.8,150.74,598.47"/>
	<path class="st1" d="M125.48,493.33c0.28,1.89-0.12,3.03-0.97,4.62c3.11,0.13,6.24-0.09,7.58-0.64c0.12-1.49-0.13-2.76-0.72-4.48
		C129.87,493.47,128.24,493.46,125.48,493.33"/>
	<path class="st1" d="M179.77,552.3c0.53-1.26,0.68-2.01,0.21-3.4c-2.25-0.38-3.56-0.77-5.63-1.58c-0.02,0.82-0.2,1.38-0.46,1.83
		C176.31,550.01,177.68,550.85,179.77,552.3"/>
	<path class="st1" d="M27.38,727.04c-2,2.22-3.35,3.34-6.01,4.79c0.69,1.31,1.51,2.31,2.74,2.92c1.87-0.8,3.93-2.27,6.48-4.51
		C28.57,729.45,27.66,728.72,27.38,727.04"/>
	<path class="st1" d="M48.26,459.17c0.85-1.36,1.23-2.3,1.56-3.61c-1.05-0.19-1.75-0.12-2.39,0.09c-0.01,0.83-0.34,1.4-0.92,2.22
		C47.41,458.12,47.81,458.46,48.26,459.17"/>
	<path class="st1" d="M199.61,771.24c-1.7-3.23-3.1-5.04-5.28-7.17c-1.58,1.85-2.24,3.29-2.55,4.78c1.62,0.98,2.35,2.26,3.31,4.34
		C196.57,771.7,197.69,771.31,199.61,771.24"/>
	<path class="st1" d="M65.26,634.35c-0.16-0.3-0.23-0.6-0.1-1.04c-1.13,0.01-1.84,0.16-2.88,0.44c-0.09,0.65,0.01,1.02,0.11,1.28
		C63.4,634.49,64.13,634.39,65.26,634.35"/>
	<path class="st1" d="M0.18,467.39c0.05,1.43,0.23,2.98,1.24,4.29c1.17,0.24,1.96,0.47,3.06,1.04c-0.29-1.02,0.03-1.68,1.06-2.79
		C3.76,469.52,2.23,468.62,0.18,467.39"/>
	<path class="st1" d="M251.68,781.43c-0.45,0-0.72,0.08-1.16,0.36c0.35,0.45,0.46,0.78,0.49,1.17c0.43,0.03,0.72-0.02,1.16-0.16
		C251.91,782.36,251.79,782,251.68,781.43"/>
	<path class="st1" d="M397.08,803.49c-1.1-2.09-2.01-3.27-3.43-4.65c-1.02,1.2-1.45,2.13-1.65,3.1c1.05,0.63,1.52,1.46,2.15,2.82
		C395.11,803.79,395.84,803.53,397.08,803.49"/>
	<path class="st1" d="M248.77,814.71c3.24,0.93,5.93,1.34,8.66,0.66c0.74-2.12,0.78-3.59,0.3-5.26c-3.37,0.56-5.34,0.39-8.53-0.72
		C249.85,811.62,249.9,813.03,248.77,814.71"/>
	<path class="st1" d="M398.53,798.14c1,0.5,1.95,0.36,3.38-0.23c-0.67-2.34-0.79-3.8-0.51-6.1c-1.06,0.37-1.89,0.28-3.5-0.2
		C397.63,793.96,397.89,795.79,398.53,798.14"/>
	<path class="st1" d="M45.46,782.03c1,0.5,1.95,0.36,3.38-0.23c-0.67-2.34-0.79-3.8-0.51-6.1c-1.06,0.37-1.89,0.28-3.5-0.2
		C44.56,777.85,44.82,779.68,45.46,782.03"/>
	<path class="st1" d="M286.35,741.49c1,0.04,1.62-0.24,2.33-1.07c-0.19-1.03-0.47-1.75-1.05-2.31c-1.09,0.28-1.89,0.15-3.22-0.19
		C285.34,739.16,285.88,739.95,286.35,741.49"/>
	<path class="st1" d="M385.81,763.76c-1.36,0.11-2.17,0.6-2.99,1.86c0.44,1.38,0.94,2.31,1.84,2.96c1.43-0.57,2.54-0.54,4.43-0.3
		C387.6,766.76,386.72,765.77,385.81,763.76"/>
	<path class="st1" d="M370.24,811.34c0.72-0.42,1.46-0.94,1.84-1.82c-0.2-0.67-0.3-1.13-0.32-1.85c-0.44,0.43-0.87,0.45-1.72,0.23
		C370.34,808.92,370.3,809.95,370.24,811.34"/>
	<path class="st1" d="M263.82,792.83c1.21,1.8,2.37,3.12,3.99,3.9c1.24-0.73,1.87-1.44,2.32-2.46c-1.89-1.12-2.79-2.01-3.9-3.88
		C265.63,791.76,265.07,792.47,263.82,792.83"/>
	<path class="st1" d="M388.92,740.44c-0.54-1.57-1.05-2.48-1.89-3.58c-0.84,0.72-1.23,1.32-1.47,1.98c0.66,0.55,0.9,1.17,1.19,2.18
		C387.52,740.44,388.06,740.34,388.92,740.44"/>
	<path class="st1" d="M301.84,773.58c-1.36-0.85-2.3-1.23-3.61-1.56c-0.19,1.05-0.12,1.75,0.09,2.39c0.83,0.01,1.4,0.34,2.22,0.92
		C300.78,774.43,301.12,774.03,301.84,773.58"/>
	<path class="st1" d="M383.89,818.31c1.43-0.05,2.98-0.23,4.29-1.24c0.24-1.17,0.47-1.96,1.04-3.06c-1.02,0.29-1.68-0.03-2.79-1.06
		C386.03,814.73,385.13,816.26,383.89,818.31"/>
	<path class="st1" d="M24.54,807.52c-1.1-2.09-2.01-3.27-3.43-4.65c-1.02,1.2-1.45,2.13-1.65,3.1c1.05,0.63,1.52,1.46,2.15,2.82
		C22.57,807.81,23.3,807.56,24.54,807.52"/>
	<path class="st1" d="M25.99,802.17c1,0.5,1.95,0.36,3.38-0.23c-0.67-2.34-0.79-3.8-0.51-6.1c-1.06,0.37-1.89,0.28-3.5-0.2
		C25.09,797.98,25.35,799.82,25.99,802.17"/>
	<path class="st1" d="M13.28,767.79c-1.36,0.11-2.17,0.6-2.99,1.86c0.44,1.38,0.94,2.31,1.84,2.96c1.43-0.57,2.54-0.54,4.43-0.3
		C15.06,770.79,14.18,769.8,13.28,767.79"/>
	<path class="st1" d="M17.17,697.9c0.72-0.42,1.46-0.94,1.84-1.82c-0.2-0.67-0.3-1.13-0.32-1.85c-0.44,0.43-0.87,0.45-1.72,0.23
		C17.27,695.48,17.23,696.51,17.17,697.9"/>
	<path class="st1" d="M11.35,822.34c1.43-0.05,2.98-0.23,4.29-1.24c0.24-1.17,0.47-1.96,1.04-3.06c-1.02,0.29-1.68-0.03-2.79-1.06
		C13.49,818.76,12.59,820.28,11.35,822.34"/>
	<path class="st1" d="M56.8,799.06c0.1-0.76-0.2-1.29-0.7-2.14c-1.81,1.17-4.09,1.88-6.8,2.45c0.37,0.7,0.43,1.23,0.36,2.1
		C52.56,801.04,54.15,800.54,56.8,799.06"/>
	<path class="st1" d="M52.52,666.69c0.1,0.56-0.02,1.15-0.77,2.3c0.54,0.24,1.08,0.3,1.81,0.17c0.44-0.93,0.63-1.52,0.63-2.52
		C53.61,666.85,53.23,666.82,52.52,666.69"/>
	<path class="st1" d="M83.51,670.54c-0.79-0.07-1.27-0.3-1.79-1.09c-0.52,0.91-0.65,1.62-0.8,2.94c0.43,0.61,0.82,0.77,1.66,0.85
		C82.72,672.1,82.9,671.3,83.51,670.54"/>
	<path class="st1" d="M37.81,677.96c0.88,0.42,1.41,0.54,2.41,0.25c0.34-1.59,0.65-2.51,1.3-3.96c-0.58-0.04-0.98-0.19-1.29-0.38
		C39.55,675.56,38.91,676.52,37.81,677.96"/>
	<path class="st1" d="M41.32,686.05c1.11,1.48,1.95,2.27,3.22,3.16c0.64-1.05,0.86-1.82,0.89-2.6c-0.89-0.36-1.36-0.94-2.01-1.91
		C42.81,685.58,42.27,685.87,41.32,686.05"/>
	<path class="st1" d="M68.14,687.82c0.4,0.65,0.96,0.89,1.88,1.24c0.68-2.05,2.02-4.02,3.78-6.15c-0.73-0.32-1.11-0.69-1.59-1.42
		C70.21,683.63,69.28,685.01,68.14,687.82"/>
	<path class="st1" d="M230.08,631.99c-0.2,0.53-0.62,0.97-1.86,1.56c0.34,0.49,0.76,0.82,1.46,1.09c0.86-0.56,1.33-0.97,1.85-1.82
		C230.93,632.7,230.61,632.48,230.08,631.99"/>
	<path class="st1" d="M163.34,683.65c0.26,0.21,0.53,0.23,0.96,0.23c-0.02-0.95,0.25-1.96,0.66-3.11c-0.35-0.02-0.56-0.12-0.87-0.36
		C163.58,681.6,163.4,682.31,163.34,683.65"/>
	<path class="st1" d="M254.47,651.49c-0.64-0.47-0.93-0.92-0.95-1.87c-0.92,0.5-1.4,1.04-2.22,2.09c0.05,0.74,0.3,1.09,0.98,1.59
		C252.98,652.41,253.55,651.83,254.47,651.49"/>
	<path class="st1" d="M255.46,745.5c0.65-0.18,0.99-0.24,1.55-0.1c0-0.27,0.04-0.43,0.17-0.56c-0.59-0.18-1.03-0.17-1.73-0.04
		C255.38,745.05,255.4,745.27,255.46,745.5"/>
	<path class="st1" d="M224.74,718.86c0.62,0.3,1.15,0.21,2.02,0.03c-0.47-1.88-0.41-4.02-0.1-6.48c-0.71,0.11-1.17,0.01-1.89-0.31
		C224.29,714.68,224.25,716.17,224.74,718.86"/>
	<path class="st1" d="M139.36,660.72c0.85,0.08,1.29,0.18,1.88,0.59c0.12-0.32,0.25-0.49,0.45-0.58c-0.61-0.49-1.14-0.67-2.04-0.84
		C139.48,660.15,139.39,660.42,139.36,660.72"/>
	<path class="st1" d="M273.89,677.48c0.12,0.95,0.64,1.51,1.51,2.38c1.84-1.98,4.38-3.54,7.5-5.07c-0.67-0.74-0.91-1.36-1.08-2.45
		C278.43,673.77,276.65,674.86,273.89,677.48"/>
	<path class="st1" d="M132.95,680.55c-0.85-0.24-1.35-0.28-2.21,0.14c-0.07,1.48-0.21,2.35-0.57,3.75c0.53-0.06,0.91,0.02,1.21,0.15
		C131.74,682.96,132.17,682.01,132.95,680.55"/>
	<path class="st1" d="M211.65,633.9c0.53,0.82,0.91,1.2,1.93,1.48c1.12-1.17,1.87-1.79,3.18-2.7c-0.48-0.34-0.74-0.67-0.9-1
		C214.38,632.76,213.34,633.24,211.65,633.9"/>
	<path class="st1" d="M210.4,642.63c0.17,1.84,0.47,2.96,1.09,4.38c1.1-0.56,1.68-1.11,2.12-1.75c-0.57-0.77-0.66-1.51-0.71-2.67
		C211.91,643,211.31,642.96,210.4,642.63"/>
	<path class="st1" d="M167.2,669.94c-0.85-1.27-2.07-1.74-4.16-2.01c-0.79,3.23-1.62,5.04-3.51,7.58c1.51,0.27,2.44,0.94,4.02,2.6
		C165.44,675.52,166.37,673.17,167.2,669.94"/>
	<path class="st1" d="M179.07,719.68c0.02-0.67,0.18-1.26,0.53-2c-1.7,0.05-2.84-0.01-4.11-0.3c-0.57,0.69-0.68,1.17-0.72,1.87
		C175.68,719.5,177.26,719.67,179.07,719.68"/>
	<path class="st1" d="M241.86,732.48c-1.21,0.58-2.06,0.54-3.31,0.3c0.55,2.12,1.35,4.18,1.99,4.97c1.03-0.23,1.83-0.66,2.86-1.4
		C242.67,735.47,242.34,734.36,241.86,732.48"/>
	<path class="st1" d="M132.23,719.63c0.69-0.09,1.09-0.26,1.71-0.76c-0.62-0.62-0.86-1.1-0.98-1.7c-0.66,0.04-1.09,0.17-1.74,0.46
		C131.71,718.26,131.95,718.78,132.23,719.63"/>
	<path class="st1" d="M232.32,658.17c0,0.77,0.35,1.26,0.96,2.04c1.65-1.39,3.83-2.37,6.45-3.26c-0.46-0.65-0.58-1.17-0.61-2.04
		C236.29,655.69,234.77,656.37,232.32,658.17"/>
	<path class="st1" d="M163.23,509.15c0.27-0.5,0.74-0.89,2.04-1.32c-0.28-0.53-0.66-0.91-1.31-1.26c-0.93,0.45-1.44,0.8-2.06,1.58
		C162.48,508.34,162.76,508.6,163.23,509.15"/>
	<path class="st1" d="M141.41,486.81c0.58,0.55,0.81,1.03,0.72,1.97c0.97-0.38,1.52-0.86,2.46-1.8c0.05-0.74-0.16-1.12-0.77-1.7
		C143,486.08,142.36,486.59,141.41,486.81"/>
	<path class="st1" d="M125.32,458.64c0-0.96-0.45-1.57-1.21-2.55c-2.07,1.74-4.78,2.98-8.06,4.11c0.58,0.82,0.73,1.46,0.77,2.56
		C120.36,461.76,122.25,460.9,125.32,458.64"/>
	<path class="st1" d="M68.61,531.14c0.21-0.95,0.22-1.49-0.29-2.41c-1.62,0.02-2.59-0.08-4.15-0.38c0.09,0.58,0.04,1-0.08,1.34
		C65.88,529.97,66.95,530.38,68.61,531.14"/>
	<path class="st1" d="M58.94,498.4c1.2-1.41,1.78-2.41,2.37-3.84c-1.17-0.39-1.97-0.43-2.73-0.29c-0.15,0.95-0.62,1.53-1.41,2.38
		C58.15,497.06,58.54,497.51,58.94,498.4"/>
	<path class="st1" d="M91.22,778.68c0.85-1.36,1.23-2.3,1.56-3.61c-1.05-0.19-1.75-0.12-2.39,0.09c-0.01,0.83-0.34,1.4-0.92,2.22
		C90.37,777.63,90.77,777.97,91.22,778.68"/>
	<path class="st1" d="M103.91,824.62c1.2-1.41,1.78-2.41,2.37-3.84c-1.17-0.39-1.97-0.43-2.73-0.29c-0.15,0.95-0.62,1.53-1.41,2.38
		C103.12,823.28,103.52,823.74,103.91,824.62"/>
	<path class="st1" d="M164.21,482.89c0.1-0.76-0.2-1.29-0.7-2.14c-1.81,1.17-4.09,1.88-6.8,2.45c0.37,0.7,0.43,1.23,0.36,2.1
		C159.97,484.87,161.55,484.37,164.21,482.89"/>
	<path class="st1" d="M346.76,721.92c-0.33,0.56-0.35,1-0.09,1.66c0.65,0.2,1.15,0.26,1.64,0.09c0.17-0.71,0.48-1.13,1.08-1.79
		C348.4,722.05,347.78,722.12,346.76,721.92"/>
	<path class="st1" d="M356.98,617.9c1.53,0.02,2.61-0.71,4.02-2.28c-2.21-2.48-3.22-4.2-4.23-7.2c-1.09,1.09-2.16,1.47-4.43,1.82
		C353.4,613.29,354.8,615.39,356.98,617.9"/>
	<path class="st1" d="M340.69,683.84c1.57-1.87,2.22-3.07,2.15-5.7c-3.63-1.84-5.67-3.19-8.79-5.68c-0.46,1.39-1.08,2.26-1.74,2.88
		C335.98,678.09,337.88,680.25,340.69,683.84"/>
	<path class="st1" d="M309.61,739.26c-0.41,1.75-1.55,3.34-5.22,5.72c1.28,1.4,2.76,2.27,5.07,2.82c2.49-2.15,3.79-3.63,5.08-6.55
		C312.59,741.14,311.51,740.59,309.61,739.26"/>
	<path class="st1" d="M337.83,717.78c0.85-0.1,1.62,0.04,2.53,0.76c1.07-2.64,1.41-4.46,1.76-7.16c-1.43-0.85-2.4-0.97-3.1-0.99
		C339.3,713.29,338.82,715.1,337.83,717.78"/>
	<path class="st1" d="M366.1,635.52c0.23,0.78,0.61,1.19,1.44,1.52c0.75-0.42,1.23-0.82,1.5-1.42c-0.5-0.77-0.61-1.42-0.7-2.54
		C367.63,634.13,367.16,634.75,366.1,635.52"/>
	<path class="st1" d="M99.22,735.37c1.53,0.02,2.61-0.71,4.02-2.28c-2.21-2.48-3.22-4.2-4.23-7.2c-1.09,1.09-2.16,1.47-4.43,1.82
		C95.64,730.75,97.04,732.86,99.22,735.37"/>
	<path class="st1" d="M82.93,801.31c1.57-1.87,2.22-3.07,2.15-5.7c-3.63-1.84-5.67-3.19-8.79-5.68c-0.46,1.39-1.08,2.26-1.74,2.88
		C78.22,795.56,80.12,797.71,82.93,801.31"/>
	<path class="st1" d="M108.34,752.99c0.23,0.78,0.61,1.19,1.44,1.52c0.75-0.42,1.23-0.82,1.5-1.42c-0.5-0.77-0.61-1.42-0.7-2.54
		C109.87,751.59,109.4,752.22,108.34,752.99"/>
	<path class="st1" d="M58,722.78c0.23,0.78,0.61,1.19,1.44,1.52c0.75-0.42,1.23-0.82,1.5-1.42c-0.5-0.77-0.61-1.42-0.7-2.54
		C59.53,721.39,59.06,722.02,58,722.78"/>
	<path class="st1" d="M329.06,760.84c-0.48,0.33-1.11,0.46-2.51,0.23c0,0.62,0.17,1.15,0.6,1.79c1.07,0.03,1.71-0.04,2.66-0.46
		C329.36,761.94,329.22,761.57,329.06,760.84"/>
</g>
<g>
	<path class="st1" d="M1121.13,325.37c-2.22-1.29-3.72-1.85-5.82-2.31c-0.25,1.69-0.11,2.79,0.26,3.8c1.33-0.02,2.24,0.47,3.59,1.35
		C1119.49,326.78,1120.02,326.13,1121.13,325.37"/>
	<path class="st1" d="M1119.4,319.62c1.21-0.12,2-0.79,2.97-2.15c-1.96-1.77-2.91-3.03-3.97-5.31c-0.76,0.95-1.58,1.35-3.33,1.83
		C1116.17,316.29,1117.46,317.83,1119.4,319.62"/>
	<path class="st1" d="M1096.54,552.19c0.94-0.53,1.36-1.15,1.53-2.32c-0.77-0.84-1.44-1.35-2.29-1.52
		c-0.84,0.88-1.65,1.22-3.07,1.67C1094.28,550.63,1095.23,551.05,1096.54,552.19"/>
	<path class="st1" d="M1100.98,348.01c0.42-0.8,0.8-1.7,0.65-2.73c-0.57-0.5-0.93-0.86-1.35-1.51c-0.16,0.65-0.54,0.91-1.44,1.2
		C1099.68,345.73,1100.23,346.7,1100.98,348.01"/>
	<path class="st1" d="M1058.46,346.63c2.14,0.96,3.96,1.51,5.91,1.3c0.72-1.39,0.89-2.4,0.72-3.6c-2.38,0.06-3.72-0.25-5.81-1.33
		C1059.52,344.6,1059.41,345.58,1058.46,346.63"/>
	<path class="st1" d="M1140.32,386.84c-1.42,0.06-2.19,0.25-3.29,1.32c0.64,2.28,0.86,3.68,1.02,6c0.78-0.35,1.39-0.43,1.92-0.39
		C1139.7,391.13,1139.88,389.46,1140.32,386.84"/>
	<path class="st1" d="M1154.59,402.04c0.55,0.14,0.96-0.03,1.62-0.32c-0.7-1.43-1.01-3.15-1.19-5.18c-0.55,0.21-0.93,0.21-1.57,0.07
		C1153.52,398.77,1153.74,399.97,1154.59,402.04"/>
	<path class="st1" d="M1166.33,493.52c-1.46-0.06-2.37,0.06-3.55,0.39c0.32,0.92,0.69,1.44,1.15,1.84c0.67-0.37,1.26-0.36,2.17-0.28
		C1165.88,494.67,1165.97,494.2,1166.33,493.52"/>
	<path class="st1" d="M1183.12,437.29c-2.05-1.63-3.53-2.28-6.48-2.62c-0.09,3.27-0.75,5.16-2.06,7.04c1.8,1.68,3.29,2.5,5.75,3.5
		C1180.74,442.26,1181.54,440.25,1183.12,437.29"/>
	<path class="st1" d="M1100.98,520.9c1.58-1.34,2.85-1.63,4.8-1.76c-1.67-2.94-3.67-5.69-4.94-6.6c-1.44,0.75-2.46,1.71-3.7,3.23
		C1098.59,516.79,1099.52,518.3,1100.98,520.9"/>
	<path class="st1" d="M1124,437.12c-1.46,0.23-2.24,0.53-3.25,1.76c0.94,2.28,1.34,3.71,1.78,6.09c0.76-0.46,1.39-0.61,1.94-0.63
		C1123.88,441.63,1123.86,439.89,1124,437.12"/>
	<path class="st1" d="M1082.35,307.1c-1.74,0-2.82,0.19-4.21,0.64c0.43,1.08,0.89,1.68,1.46,2.14c0.77-0.47,1.48-0.49,2.57-0.44
		C1081.87,308.49,1081.95,307.92,1082.35,307.1"/>
	<path class="st1" d="M1117.52,346.58c1.29-0.86,2.61-1.92,3.23-3.61c-0.45-1.22-0.69-2.07-0.8-3.41c-0.77,0.85-1.57,0.94-3.17,0.63
		C1117.43,342.06,1117.48,343.98,1117.52,346.58"/>
	<path class="st1" d="M1176.77,136.8c-1.13,1.4-1.67,2.39-2.21,3.79c1.14,0.35,1.92,0.37,2.66,0.22c0.13-0.92,0.56-1.51,1.31-2.35
		C1177.57,138.09,1177.18,137.66,1176.77,136.8"/>
	<path class="st1" d="M1168.34,345.11c0.6-0.12,1.25,0.01,2.5,0.82c0.26-0.59,0.32-1.17,0.17-1.97c-1.01-0.47-1.66-0.67-2.74-0.66
		C1168.5,343.92,1168.48,344.33,1168.34,345.11"/>
	<path class="st1" d="M1172.26,311.49c-0.07,0.86-0.31,1.38-1.17,1.95c0.99,0.56,1.76,0.69,3.2,0.84c0.66-0.47,0.83-0.9,0.9-1.81
		C1173.96,312.33,1173.09,312.14,1172.26,311.49"/>
	<path class="st1" d="M1184.99,278.71c0.81-0.66,1.02-1.45,1.32-2.76c-2.88-0.55-5.77-2-8.97-3.98c-0.29,1.04-0.73,1.61-1.63,2.4
		C1178.97,276.67,1180.99,277.67,1184.99,278.71"/>
	<path class="st1" d="M1180.68,360.96c0.44-0.96,0.58-1.53,0.25-2.62c-1.72-0.36-2.72-0.69-4.31-1.37c-0.03,0.63-0.19,1.06-0.4,1.4
		C1178.07,359.09,1179.1,359.77,1180.68,360.96"/>
	<path class="st1" d="M1189.42,357.09c1.59-1.21,2.45-2.14,3.4-3.52c-1.14-0.69-1.98-0.91-2.82-0.94c-0.38,0.97-1.01,1.48-2.05,2.19
		C1188.9,355.48,1189.21,356.06,1189.42,357.09"/>
	<path class="st1" d="M1191.12,328c0.71-0.44,0.95-1.05,1.32-2.05c-2.23-0.72-4.37-2.16-6.7-4.05c-0.34,0.8-0.74,1.21-1.53,1.74
		C1186.55,325.79,1188.05,326.78,1191.12,328"/>
	<path class="st1" d="M1093.84,477.12c-0.61,0.04-1.24-0.17-2.38-1.12c-0.33,0.56-0.46,1.13-0.4,1.93c0.95,0.59,1.56,0.86,2.64,0.99
		C1093.53,478.28,1093.6,477.87,1093.84,477.12"/>
	<path class="st1" d="M1085.84,510.01c0.17-0.84,0.48-1.33,1.4-1.79c-0.91-0.67-1.67-0.9-3.07-1.23c-0.71,0.39-0.93,0.79-1.12,1.69
		C1084.25,508.97,1085.09,509.26,1085.84,510.01"/>
	<path class="st1" d="M1069.19,540.99c-0.88,0.55-1.19,1.31-1.65,2.57c2.79,0.9,5.48,2.69,8.41,5.05c0.42-1,0.92-1.51,1.91-2.18
		C1074.91,543.75,1073.03,542.5,1069.19,540.99"/>
	<path class="st1" d="M1168.41,551.46c-1,0.35-1.5,0.66-2.05,1.65c0.95,1.48,1.41,2.43,2.03,4.04c0.48-0.42,0.9-0.61,1.28-0.69
		C1168.9,554.63,1168.67,553.41,1168.41,551.46"/>
	<path class="st1" d="M1143.87,579.15c-1.98-0.29-3.24-0.25-4.89,0.03c0.31,1.3,0.74,2.06,1.3,2.68c0.96-0.4,1.76-0.31,3-0.07
		C1143.09,580.65,1143.28,580.03,1143.87,579.15"/>
	<path class="st1" d="M1069.14,491.31c-0.75,0.35-1.07,0.92-1.56,1.87c2.12,0.99,4.08,2.68,6.16,4.84c0.43-0.75,0.88-1.11,1.73-1.54
		C1073.4,494.07,1072.03,492.9,1069.14,491.31"/>
	<path class="st1" d="M1183.97,186.2c0.7-0.02,1.13-0.25,1.58-0.87c-0.19-0.72-0.42-1.21-0.86-1.56c-0.75,0.25-1.31,0.21-2.27,0.04
		C1183.14,184.62,1183.56,185.15,1183.97,186.2"/>
	<path class="st1" d="M1082.49,236.56c-0.86-1.41-2.16-1.99-4.4-2.38c-1.02,3.45-2.01,5.37-4.18,8.03c1.62,0.37,2.59,1.14,4.22,3.02
		C1080.3,242.5,1081.43,240.01,1082.49,236.56"/>
	<path class="st1" d="M1152.46,213.65c-2.62-0.37-4.1-0.28-6.47,1.3c0.4,4.4,0.33,7.04-0.17,11.34c1.54-0.38,2.69-0.31,3.65-0.05
		C1149.88,221.29,1150.76,218.3,1152.46,213.65"/>
	<path class="st1" d="M1185.29,196.79c-0.58-0.73-0.89-1.51-0.75-2.77c-3.04,0.54-4.91,1.27-7.59,2.5c0.04,1.8,0.48,2.76,0.87,3.42
		C1180.32,198.01,1182.26,197.41,1185.29,196.79"/>
	<path class="st1" d="M1093.44,218.06c0.59-0.66,0.74-1.24,0.57-2.2c-0.81-0.45-1.46-0.66-2.17-0.57c-0.42,0.9-0.95,1.38-1.93,2.1
		C1091.28,217.45,1092.13,217.53,1093.44,218.06"/>
</g>
</svg>
